# xmcd
#
# Track frame offsets:
#	225
#	15194
#	26453
#	41200
#	59437
#	73884
#	91207
#	103183
#	116253
#	134492
#	144812
#	163053
#	174563
#	193019
#	205810
#	219084
#	233658
#	248482
#	264001
#	278664
#	288293
#	303438
#	316407
#	331443
#
# Disc length: 4597 seconds
#
# Revision: 2
# Processed by: cddbd v1.4PL0 Copyright (c) Steve Scherf et al.
# Submitted via: MusicWizard 6.0.2
#
DISCID=4c11f218
DTITLE=Various Artist - Radio Sachsen-Anhalt - Country Time Mit Marty Jones/ 06-11-2002
DYEAR=2002
DGENRE=Country
TTITLE0=Leanne Womack - Something Worth Leaving Behind
TTITLE1=Wilk and Friends - Highway Family
TTITLE2=Sherry Austin - Jolene
TTITLE3=Rhinestone Cowboys - Lonesome Blue
TTITLE4=Brad Paceley - Wraped Around
TTITLE5=Gunter Gabriel - Es War Nicht Alles Schlecht
TTITLE6=Tracy Byrd - Ten Rounds With Rose Quavo
TTITLE7=Truck Stop - Bock Auf Deinen Pick-Up Truck
TTITLE8=Dixie Chicks - Long Time Gone
TTITLE9=Truck Stop - Immer Vorwärts
TTITLE10=Willie Nelson - Mendocine County Line
TTITLE11=Rio Carter - Keep It Country
TTITLE12=Montgomery Gentry - My Town
TTITLE13=Truck Stop - Der Pirschurlaub Auf Der Autobahn
TTITLE14=Kevin Danny - Cadillac Tears
TTITLE15=Country Rose - Fast Jeden Montag
TTITLE16=Keith Urban - Somebody Like You
TTITLE17=Mark Merritt - Dangerous Straight Ahead
TTITLE18=Jonny Hill - Schnee Von Gestern
TTITLE19=Mel McDaniel - Let It Roll
TTITLE20=Country Rose - Tu's Doch
TTITLE21=The Mavericks - Here Comes My Baby
TTITLE22=Katja Kay - What'd You Do With My Heart
TTITLE23=Dagmar - Mädchen Müssen Manchmal Mogeln, Männer Wollen Das Manchmal So
EXTD=
EXTT0=
EXTT1=
EXTT2=
EXTT3=
EXTT4=
EXTT5=
EXTT6=
EXTT7=
EXTT8=
EXTT9=
EXTT10=
EXTT11=
EXTT12=
EXTT13=
EXTT14=
EXTT15=
EXTT16=
EXTT17=
EXTT18=
EXTT19=
EXTT20=
EXTT21=
EXTT22=
EXTT23=
PLAYORDER=
